<?xml version="1.0" encoding="UTF-8" standalone="no"?>
<svg
   xmlns:dc="http://purl.org/dc/elements/1.1/"
   xmlns:cc="http://creativecommons.org/ns#"
   xmlns:rdf="http://www.w3.org/1999/02/22-rdf-syntax-ns#"
   xmlns:svg="http://www.w3.org/2000/svg"
   xmlns="http://www.w3.org/2000/svg"
   xmlns:sodipodi="http://sodipodi.sourceforge.net/DTD/sodipodi-0.dtd"
   xmlns:inkscape="http://www.inkscape.org/namespaces/inkscape"
   version="1.1"
   id="svg2"
   xml:space="preserve"
   width="714.97333"
   height="178.62666"
   viewBox="0 0 714.97333 178.62666"
   sodipodi:docname="formula-1-seeklogo.com.eps"><metadata
     id="metadata8"><rdf:RDF><cc:Work
         rdf:about=""><dc:format>image/svg+xml</dc:format><dc:type
           rdf:resource="http://purl.org/dc/dcmitype/StillImage" /></cc:Work></rdf:RDF></metadata><defs
     id="defs6" /><sodipodi:namedview
     pagecolor="#ffffff"
     bordercolor="#666666"
     borderopacity="1"
     objecttolerance="10"
     gridtolerance="10"
     guidetolerance="10"
     inkscape:pageopacity="0"
     inkscape:pageshadow="2"
     inkscape:window-width="640"
     inkscape:window-height="480"
     id="namedview4" /><g
     id="g10"
     inkscape:groupmode="layer"
     inkscape:label="ink_ext_XXXXXX"
     transform="matrix(1.3333333,0,0,-1.3333333,0,178.62667)"><g
       id="g12"
       transform="scale(0.1)"><path
         d="M 0,4.12891 H 758.199 L 1429.07,643.234 c 0,0 158.25,184.852 415.11,184.852 256.85,0 2061.85,0 2061.85,0 l 516.05,510.184 H 1851.21 c 0,0 -443.33,18.77 -710.74,-225.18 C 873.066,869.137 0,4.12891 0,4.12891"
         style="fill:#ed2425;fill-opacity:1;fill-rule:nonzero;stroke:none"
         id="path14" /><path
         d="M 894.586,4.12891 H 1596.5 L 1791.93,196.73 c 0,0 97.34,95.469 242.86,95.469 145.51,0 1328.18,0 1328.18,0 l 469.31,467.766 H 1943.36 c 0,0 -251.16,10.629 -402.66,-127.578 C 1389.21,494.184 894.586,4.12891 894.586,4.12891"
         style="fill:#ed2425;fill-opacity:1;fill-rule:nonzero;stroke:none"
         id="path16" /><path
         d="m 4031.25,5.23047 h -830.4 L 4531.9,1339.72 h 830.39 L 4031.25,5.23047"
         style="fill:#ed2425;fill-opacity:1;fill-rule:nonzero;stroke:none"
         id="path18" /><path
         d="m 4423.93,0 v 134.73 h -50.38 v 27.43 h 134.94 v -27.43 h -50.27 V 0 h -34.29"
         style="fill:#ed2425;fill-opacity:1;fill-rule:nonzero;stroke:none"
         id="path20" /><path
         d="m 4530.15,0 v 162.16 h 51.31 l 30.81,-110.6209 30.46,110.6209 h 51.43 V 0 h -31.85 V 127.648 L 4628.6,0 h -33.01 L 4562,127.648 V 0 h -31.85"
         style="fill:#ed2425;fill-opacity:1;fill-rule:nonzero;stroke:none"
         id="path22" /></g></g></svg>
